<?xml version="1.0" encoding="UTF-8" standalone="no"?>
<!-- Created with Inkscape (http://www.inkscape.org/) -->

<svg
   xmlns:dc="http://purl.org/dc/elements/1.1/"
   xmlns:cc="http://creativecommons.org/ns#"
   xmlns:rdf="http://www.w3.org/1999/02/22-rdf-syntax-ns#"
   xmlns:svg="http://www.w3.org/2000/svg"
   xmlns="http://www.w3.org/2000/svg"
   xmlns:xlink="http://www.w3.org/1999/xlink"
   xmlns:sodipodi="http://sodipodi.sourceforge.net/DTD/sodipodi-0.dtd"
   xmlns:inkscape="http://www.inkscape.org/namespaces/inkscape"
   width="94.853439mm"
   height="23.900747mm"
   viewBox="0 0 94.853439 23.900747"
   version="1.1"
   id="svg1073"
   sodipodi:docname="LightShadows.svg"
   inkscape:version="0.92.4 (5da689c313, 2019-01-14)">
  <defs
     id="defs1067">
    <linearGradient
       inkscape:collect="always"
       xlink:href="#linearGradient1056"
       id="linearGradient1058"
       x1="13.814453"
       y1="297.73346"
       x2="232.0957"
       y2="297.73346"
       gradientUnits="userSpaceOnUse" />
    <linearGradient
       inkscape:collect="always"
       id="linearGradient1056">
      <stop
         style="stop-color:#f1ffff;stop-opacity:1;"
         offset="0"
         id="stop1052" />
      <stop
         style="stop-color:#f1ffff;stop-opacity:0;"
         offset="1"
         id="stop1054" />
    </linearGradient>
  </defs>
  <sodipodi:namedview
     id="base"
     pagecolor="#9c9ca0"
     bordercolor="#666666"
     borderopacity="1.0"
     inkscape:pageopacity="0.97254902"
     inkscape:pageshadow="2"
     inkscape:zoom="2.8"
     inkscape:cx="253.39059"
     inkscape:cy="-3.4717122"
     inkscape:document-units="mm"
     inkscape:current-layer="layer1"
     showgrid="false"
     inkscape:showpageshadow="false"
     inkscape:window-width="1920"
     inkscape:window-height="1001"
     inkscape:window-x="-9"
     inkscape:window-y="-9"
     inkscape:window-maximized="1"
     fit-margin-top="0"
     fit-margin-left="0"
     fit-margin-right="0"
     fit-margin-bottom="0" />
  <metadata
     id="metadata1070">
    <rdf:RDF>
      <cc:Work
         rdf:about="">
        <dc:format>image/svg+xml</dc:format>
        <dc:type
           rdf:resource="http://purl.org/dc/dcmitype/StillImage" />
        <dc:title></dc:title>
      </cc:Work>
    </rdf:RDF>
  </metadata>
  <g
     inkscape:label="Layer 1"
     inkscape:groupmode="layer"
     id="layer1"
     transform="translate(-14.84708,-21.254603)">
    <g
       id="g1783">
      <g
         aria-label="SHAD    W"
         transform="matrix(0.26458333,0,0,0.26458333,14.394498,-15.12363)"
         style="font-style:normal;font-weight:normal;font-size:40px;line-height:1.25;font-family:sans-serif;letter-spacing:0px;word-spacing:0px;opacity:1;fill:#f7650c;fill-opacity:1;stroke:none"
         id="flowRoot920">
        <path
           d="m 47.555473,144.78753 -4.859766,8.76797 -0.951563,-0.50976 q 0.577735,-1.5293 0.577735,-1.90313 0,-1.01953 -2.514844,-2.20898 -6.83086,-3.19453 -14.477345,-3.19453 -6.28711,0 -10.94297,2.34492 -2.242969,1.15547 -3.56836,2.99062 -1.2914059,1.83516 -1.2914059,3.87422 0,1.69922 1.0195309,3.22852 1.019532,1.49531 2.684766,2.24297 1.835157,0.84961 4.316016,1.18945 2.514844,0.30586 8.156251,0.47578 7.816407,0.23789 11.18086,0.74766 3.364454,0.47578 5.539454,1.69922 5.777344,3.22851 5.777344,9.82148 0,6.28711 -5.233594,10.29727 -5.811329,4.48594 -16.006642,4.48594 -5.879297,0 -10.263282,-1.18946 -4.383985,-1.18945 -10.4671886,-4.38398 -1.6992189,-0.78164 -2.0050783,-0.78164 -0.5097657,0 -1.5972658,1.22344 l -0.9175782,-0.57774 5.0976567,-8.53008 0.9515626,0.54375 q -0.6457032,1.35938 -0.6457032,1.83516 0,1.0875 4.3500008,3.36445 3.908203,2.03907 7.510547,2.95664 3.636329,0.8836 7.884376,0.8836 8.598047,0 13.050001,-3.77227 2.956641,-2.51484 2.956641,-5.98125 0,-4.55391 -5.063672,-6.28711 -1.631251,-0.57773 -3.398438,-0.71367 -1.733204,-0.16992 -9.923439,-0.47578 -5.845313,-0.23789 -9.175782,-0.8836 -3.296484,-0.6457 -5.8792971,-2.10703 -2.4128908,-1.35937 -3.8402347,-3.80625 -1.3933595,-2.44687 -1.3933595,-5.33555 0,-4.92773 3.6703128,-8.46211 2.7187505,-2.58281 7.5105475,-4.04414 4.791797,-1.49531 10.501173,-1.49531 4.65586,0 8.632032,0.91758 4.010156,0.91758 9.039844,3.16055 1.121485,0.47578 1.39336,0.47578 0.611719,0 1.665234,-1.35938 z"
           style="font-style:normal;font-variant:normal;font-weight:normal;font-stretch:normal;font-size:69.6000061px;font-family:'Copperplate Gothic light';-inkscape-font-specification:'Copperplate Gothic light, ';fill:#f7650c;fill-opacity:1"
           id="path1785"
           inkscape:connector-curvature="0" />
        <path
           d="M 95.371494,166.67347 H 63.5961 v 17.6379 q 0,1.42734 0.407813,2.00507 0.441797,0.57774 1.767187,0.91758 v 1.0875 h -9.685547 v -1.0875 q 1.32539,-0.33984 1.733203,-0.91758 0.441797,-0.57773 0.441797,-2.00507 V 145.943 q 0,-1.42734 -0.441797,-2.00508 -0.441797,-0.61171 -1.733203,-0.91757 v -1.0875 H 65.7711 v 1.0875 q -1.291406,0.33984 -1.733203,0.91757 -0.441797,0.57774 -0.441797,2.00508 v 16.3125 H 95.371494 V 145.943 q 0,-1.42734 -0.441797,-2.00508 -0.441797,-0.61171 -1.733204,-0.91757 v -1.0875 h 9.685547 v 1.0875 q -1.29141,0.33984 -1.7332,0.91757 -0.4418,0.57774 -0.4418,2.00508 v 38.36837 q 0,1.39336 0.4418,2.00507 0.44179,0.57774 1.7332,0.91758 v 1.0875 h -9.685547 v -1.0875 q 1.291407,-0.33984 1.733204,-0.91758 0.441797,-0.57773 0.441797,-2.00507 z"
           style="font-style:normal;font-variant:normal;font-weight:normal;font-stretch:normal;font-size:69.6000061px;font-family:'Copperplate Gothic light';-inkscape-font-specification:'Copperplate Gothic light, ';fill:#f7650c;fill-opacity:1"
           id="path1787"
           inkscape:connector-curvature="0" />
        <path
           d="m 145.97423,175.30551 h -24.84258 l -4.07813,8.80195 q -0.57773,1.25742 -0.57773,1.76719 0,1.01953 2.00508,1.35937 v 1.0875 h -10.33125 v -1.0875 q 1.39335,-0.23789 2.10703,-1.01953 0.74765,-0.78164 1.93711,-3.39844 l 16.99219,-36.66914 q 0.61171,-1.32539 0.61171,-1.80117 0,-0.8836 -1.66523,-1.32539 v -1.0875 h 11.28281 v 1.0875 q -1.66523,0.54375 -1.66523,1.42734 0,0.37383 0.61172,1.69922 l 16.27851,35.34375 q 1.80118,3.90821 2.37891,4.58789 0.57774,0.67969 2.51485,1.15547 v 1.0875 h -11.01094 v -1.0875 q 1.97109,-0.27187 1.97109,-1.49531 0,-0.54375 -0.74766,-2.10703 z m -2.00508,-4.41797 -10.4332,-22.90547 -10.39922,22.90547 z"
           style="font-style:normal;font-variant:normal;font-weight:normal;font-stretch:normal;font-size:69.6000061px;font-family:'Copperplate Gothic light';-inkscape-font-specification:'Copperplate Gothic light, ';fill:#f7650c;fill-opacity:1"
           id="path1789"
           inkscape:connector-curvature="0" />
        <path
           d="m 166.60275,184.78715 v -39.31993 q 0,-1.01953 -0.47578,-1.56328 -0.47578,-0.54375 -1.69922,-0.88359 v -1.0875 h 24.46875 q 8.32617,0 12.74414,2.31093 5.57344,2.88868 8.4961,8.90391 2.54883,5.26758 2.54883,11.9625 0,7.91836 -3.43243,13.66172 -3.09257,5.09766 -7.85039,7.34063 -4.72383,2.20898 -12.50625,2.20898 h -24.46875 v -1.0875 q 1.22344,-0.33984 1.69922,-0.88359 0.47578,-0.54375 0.47578,-1.56328 z m 5.33555,-0.8836 h 16.7543 q 7.37461,0 10.94297,-2.27695 4.21406,-2.71875 6.18515,-8.32617 1.29141,-3.73828 1.29141,-8.19024 0,-8.08828 -4.11211,-13.38984 -2.27695,-2.92266 -5.53945,-4.1461 -3.2625,-1.22343 -8.76797,-1.22343 h -16.7543 z"
           style="font-style:normal;font-variant:normal;font-weight:normal;font-stretch:normal;font-size:69.6000061px;font-family:'Copperplate Gothic light';-inkscape-font-specification:'Copperplate Gothic light, ';fill:#f7650c;fill-opacity:1"
           id="path1791"
           inkscape:connector-curvature="0" />
        <path
           d="m 323.33869,148.89964 -11.7586,33.88243 q -0.67969,2.00508 -0.67969,2.78672 0,1.12148 1.93711,1.66523 v 1.0875 h -11.24882 v -1.0875 q 1.9371,-0.37383 1.9371,-1.66523 0,-0.71367 -0.74765,-2.78672 l -12.4043,-34.1543 q -1.29141,-3.50039 -2.00508,-4.38399 -0.67969,-0.91757 -2.31094,-1.22343 v -1.0875 h 10.87501 v 1.0875 q -2.03907,0.23789 -2.03907,1.7332 0,0.54375 0.91758,3.16055 l 11.55469,32.76094 11.45274,-32.76094 q 0.98554,-2.88868 0.98554,-3.33047 0,-1.22344 -1.93711,-1.56328 v -1.0875 h 11.82657 v 1.0875 q -1.93711,0.47578 -1.93711,1.7332 0,0.50977 0.91757,3.16055 l 11.24883,32.76094 11.14688,-32.76094 q 0.81562,-2.44688 0.81562,-3.22852 0,-1.29141 -1.90312,-1.66523 v -1.0875 h 10.2293 v 1.0875 q -1.66524,0.33984 -2.44688,1.32539 -0.74765,0.95156 -1.86914,4.28203 l -11.86055,34.1543 q -0.67968,1.97109 -0.67968,2.6168 0,1.35937 1.93711,1.83515 v 1.0875 h -11.07891 v -1.0875 q 1.93711,-0.44179 1.93711,-1.86914 0,-0.4418 -0.67969,-2.31094 z"
           style="font-style:normal;font-variant:normal;font-weight:normal;font-stretch:normal;font-size:69.6000061px;font-family:'Copperplate Gothic light';-inkscape-font-specification:'Copperplate Gothic light, ';fill:#f7650c;fill-opacity:1"
           id="path1793"
           inkscape:connector-curvature="0" />
      </g>
      <path
         inkscape:connector-curvature="0"
         id="path1010"
         d="m 88.257373,28.821493 a 7.2760417,7.2760417 0 0 1 -7.276039,7.27604 7.2760417,7.2760417 0 0 1 -7.276053,-7.27604 7.2760417,7.2760417 0 0 1 7.276053,-7.27604 7.2760417,7.2760417 0 0 1 7.276039,7.27604 z"
         style="opacity:1;fill:#d5f6ff;stroke:#000000;stroke-width:0;stroke-linecap:round;stroke-linejoin:round;stroke-miterlimit:4;stroke-dasharray:none" />
      <path
         style="opacity:1;fill:#87aade;stroke:#000000;stroke-width:0;stroke-linecap:round;stroke-linejoin:round;stroke-miterlimit:4;stroke-dasharray:none"
         d="m 80.446783,21.254633 a 7.2760417,7.2760417 0 0 0 -7.276039,7.27604 7.2760417,7.2760417 0 0 0 6.820259,7.25279 7.2760417,7.2760417 0 0 1 -3.276801,-6.07146 7.2760417,7.2760417 0 0 1 7.276039,-7.27604 7.2760417,7.2760417 0 0 1 0.456301,0.0227 7.2760417,7.2760417 0 0 0 -3.999759,-1.20406 z"
         id="path1012"
         inkscape:connector-curvature="0" />
      <path
         style="opacity:0.6;fill:#77d2e9;fill-opacity:1;stroke:#77a9e9;stroke-width:0.13229166;stroke-linecap:round;stroke-linejoin:round;stroke-miterlimit:4;stroke-dasharray:none;stroke-opacity:1"
         d="m 86.357892,31.358313 c -0.0131,0.43633 -0.49453,1.1908 -1.086678,1.39568 -0.60016,0 -1.046883,-0.43305 -1.046883,-1.20386 0.826551,-0.75975 0.446723,-1.5875 1.046883,-1.5875 0.600159,0 1.086678,0.62487 1.086678,1.39568 z"
         id="path1014"
         inkscape:connector-curvature="0"
         sodipodi:nodetypes="ccccc" />
      <path
         style="opacity:0.6;fill:#77d2e9;fill-opacity:1;stroke:#77a9e9;stroke-width:0.13229166;stroke-linecap:round;stroke-linejoin:round;stroke-miterlimit:4;stroke-dasharray:none;stroke-opacity:1"
         d="m 81.843081,32.608463 c 0,0.75 0.0592,0.97647 -0.697828,0.97647 -0.756991,0 -1.37065,-0.608 -1.37065,-1.358 0.201848,-1.21941 0.74708,-1.66826 1.37065,-1.358 0.677739,0.33721 0.697828,0.98952 0.697828,1.73953 z"
         id="path1016"
         inkscape:connector-curvature="0"
         sodipodi:nodetypes="cscsc" />
      <path
         style="opacity:0.6;fill:#77d2e9;fill-opacity:1;stroke:#77a9e9;stroke-width:0.13229166;stroke-linecap:round;stroke-linejoin:round;stroke-miterlimit:4;stroke-dasharray:none;stroke-opacity:1"
         d="m 82.248643,26.063043 c -0.47153,0.0505 -0.49633,0.36691 -0.46862,0.50608 -0.25881,0 -0.48165,0.27485 -0.468619,-0.50608 0,-0.2795 0.209809,-0.50609 0.468619,-0.50609 0.25881,0 0.46862,0.22659 0.46862,0.50609 z"
         id="path1018"
         inkscape:connector-curvature="0"
         sodipodi:nodetypes="ccccc" />
      <path
         style="opacity:0.6;fill:#77d2e9;fill-opacity:1;stroke:none;stroke-width:0.13229166;stroke-linecap:butt;stroke-linejoin:round;stroke-miterlimit:4;stroke-dasharray:none;stroke-opacity:1"
         d="m 86.605581,26.523043 c 0.463542,1.14618 -0.174429,1.05882 -1.511149,1.05882 -1.33673,0 -1.628719,-0.25003 -1.610468,-1.48104 0.0177,-1.19644 0.537099,-1.14724 1.388888,-2.09584 0.877702,-0.97744 1.3312,1.52522 1.732729,2.51806 z"
         id="path1020"
         inkscape:connector-curvature="0"
         sodipodi:nodetypes="sssss" />
      <g
         aria-label="Web Designs"
         transform="matrix(0.26458333,0,0,0.26458333,29.797031,-36.573782)"
         style="font-style:normal;font-weight:normal;font-size:40px;line-height:1.25;font-family:sans-serif;letter-spacing:0px;word-spacing:0px;fill:url(#linearGradient1058);fill-opacity:1;stroke:none"
         id="flowRoot1044">
        <path
           d="m 30.955078,289.77251 -5.40625,15.57812 q -0.3125,0.92188 -0.3125,1.28125 0,0.51563 0.890625,0.76563 v 0.5 h -5.171875 v -0.5 q 0.890625,-0.17188 0.890625,-0.76563 0,-0.32812 -0.34375,-1.28125 l -5.703125,-15.70312 q -0.59375,-1.60938 -0.921875,-2.01563 -0.3125,-0.42187 -1.0625,-0.5625 v -0.5 h 5 v 0.5 q -0.9375,0.10938 -0.9375,0.79688 0,0.25 0.421875,1.45312 l 5.3125,15.0625 5.265625,-15.0625 q 0.453125,-1.32812 0.453125,-1.53125 0,-0.5625 -0.890625,-0.71875 v -0.5 h 5.4375 v 0.5 q -0.890625,0.21875 -0.890625,0.79688 0,0.23437 0.421875,1.45312 l 5.171875,15.0625 5.125,-15.0625 q 0.375,-1.125 0.375,-1.48437 0,-0.59375 -0.875,-0.76563 v -0.5 h 4.703125 v 0.5 q -0.765625,0.15625 -1.125,0.60938 -0.34375,0.4375 -0.859375,1.96875 l -5.453125,15.70312 q -0.3125,0.90625 -0.3125,1.20313 0,0.625 0.890625,0.84375 v 0.5 h -5.09375 v -0.5 q 0.890625,-0.20313 0.890625,-0.85938 0,-0.20312 -0.3125,-1.0625 z"
           style="font-style:normal;font-variant:normal;font-weight:normal;font-stretch:normal;font-size:32px;font-family:'Copperplate Gothic light';-inkscape-font-specification:'Copperplate Gothic light, ';fill:#ffffff;fill-opacity:1"
           id="path1796"
           inkscape:connector-curvature="0" />
        <path
           d="m 52.556641,299.71001 v 6.48437 h 10.8125 q 0.65625,0 0.921875,-0.20312 0.28125,-0.20313 0.421875,-0.8125 h 0.4375 v 3.71875 h -0.4375 q -0.140625,-0.59375 -0.40625,-0.79688 -0.265625,-0.20312 -0.921875,-0.20312 h -14.0625 v -0.42188 q 0.609375,-0.15625 0.796875,-0.42187 0.203125,-0.28125 0.203125,-0.92188 v -13.96875 q 0,-0.65625 -0.203125,-0.92187 -0.203125,-0.26563 -0.796875,-0.42188 v -0.42187 h 13.953125 q 0.65625,0 0.921875,-0.20313 0.265625,-0.20312 0.421875,-0.79687 h 0.421875 v 3.71875 h -0.421875 q -0.15625,-0.60938 -0.421875,-0.8125 -0.265625,-0.20313 -0.921875,-0.20313 h -10.71875 v 5.90625 h 6.828125 q 0.65625,0 0.921875,-0.20312 0.265625,-0.20313 0.421875,-0.79688 h 0.421875 v 3.71875 h -0.421875 q -0.15625,-0.60937 -0.4375,-0.8125 -0.265625,-0.20312 -0.90625,-0.20312 z"
           style="font-style:normal;font-variant:normal;font-weight:normal;font-stretch:normal;font-size:32px;font-family:'Copperplate Gothic light';-inkscape-font-specification:'Copperplate Gothic light, ';fill:#ffffff;fill-opacity:1"
           id="path1798"
           inkscape:connector-curvature="0" />
        <path
           d="m 82.736328,298.72563 q 3.078125,1.25 3.078125,4.29688 0,2.21875 -1.5625,3.54687 -0.875,0.73438 -2.015625,1.03125 -1.140625,0.29688 -3.046875,0.29688 H 68.361328 v -0.42188 q 0.59375,-0.15625 0.796875,-0.42187 0.203125,-0.28125 0.203125,-0.92188 v -13.96875 q 0,-0.65625 -0.203125,-0.92187 -0.203125,-0.26563 -0.796875,-0.42188 v -0.42187 h 10.5 q 1.640625,0 2.65625,0.21875 1.015625,0.20312 1.765625,0.70312 0.90625,0.57813 1.421875,1.59375 0.53125,1.01563 0.53125,2.15625 0,2.40625 -2.5,3.65625 z m -11.140625,-0.82812 h 6.640625 q 1.578125,0 2.3125,-0.10938 0.75,-0.125 1.34375,-0.46875 1.203125,-0.67187 1.203125,-2.17187 0,-1.67188 -1.390625,-2.46875 -0.609375,-0.34375 -1.375,-0.45313 -0.75,-0.125 -2.28125,-0.125 h -6.453125 z m 0,8.29687 h 6.96875 q 1.65625,0 2.4375,-0.125 0.78125,-0.14062 1.40625,-0.53125 1.265625,-0.79687 1.265625,-2.48437 0,-1.89063 -1.46875,-2.78125 -0.625,-0.39063 -1.4375,-0.53125 -0.796875,-0.14063 -2.40625,-0.14063 h -6.765625 z"
           style="font-style:normal;font-variant:normal;font-weight:normal;font-stretch:normal;font-size:32px;font-family:'Copperplate Gothic light';-inkscape-font-specification:'Copperplate Gothic light, ';fill:#ffffff;fill-opacity:1"
           id="path1800"
           inkscape:connector-curvature="0" />
        <path
           d="m 98.517578,306.27251 v -18.07813 q 0,-0.46875 -0.21875,-0.71875 -0.21875,-0.25 -0.78125,-0.40625 v -0.5 h 11.250002 q 3.82812,0 5.85937,1.0625 2.5625,1.32813 3.90625,4.09375 1.17188,2.42188 1.17188,5.5 0,3.64063 -1.57813,6.28125 -1.42187,2.34375 -3.60937,3.375 -2.17188,1.01563 -5.75,1.01563 H 97.517578 v -0.5 q 0.5625,-0.15625 0.78125,-0.40625 0.21875,-0.25 0.21875,-0.71875 z m 2.453122,-0.40625 h 7.70313 q 3.39062,0 5.03125,-1.04688 1.9375,-1.25 2.84375,-3.82812 0.59375,-1.71875 0.59375,-3.76563 0,-3.71875 -1.89063,-6.15625 -1.04687,-1.34375 -2.54687,-1.90625 -1.5,-0.5625 -4.03125,-0.5625 h -7.70313 z"
           style="font-style:normal;font-variant:normal;font-weight:normal;font-stretch:normal;font-size:32px;font-family:'Copperplate Gothic light';-inkscape-font-specification:'Copperplate Gothic light, ';fill:#ffffff;fill-opacity:1"
           id="path1802"
           inkscape:connector-curvature="0" />
        <path
           d="m 126.6582,299.71001 v 6.48437 h 10.8125 q 0.65625,0 0.92188,-0.20312 0.28125,-0.20313 0.42187,-0.8125 h 0.4375 v 3.71875 h -0.4375 q -0.14062,-0.59375 -0.40625,-0.79688 -0.26562,-0.20312 -0.92187,-0.20312 h -14.0625 v -0.42188 q 0.60937,-0.15625 0.79687,-0.42187 0.20313,-0.28125 0.20313,-0.92188 v -13.96875 q 0,-0.65625 -0.20313,-0.92187 -0.20312,-0.26563 -0.79687,-0.42188 v -0.42187 h 13.95312 q 0.65625,0 0.92188,-0.20313 0.26562,-0.20312 0.42187,-0.79687 h 0.42188 v 3.71875 h -0.42188 q -0.15625,-0.60938 -0.42187,-0.8125 -0.26563,-0.20313 -0.92188,-0.20313 H 126.6582 v 5.90625 h 6.82813 q 0.65625,0 0.92187,-0.20312 0.26563,-0.20313 0.42188,-0.79688 h 0.42187 v 3.71875 h -0.42187 q -0.15625,-0.60937 -0.4375,-0.8125 -0.26563,-0.20312 -0.90625,-0.20312 z"
           style="font-style:normal;font-variant:normal;font-weight:normal;font-stretch:normal;font-size:32px;font-family:'Copperplate Gothic light';-inkscape-font-specification:'Copperplate Gothic light, ';fill:#ffffff;fill-opacity:1"
           id="path1804"
           inkscape:connector-curvature="0" />
        <path
           d="m 159.12695,291.30376 -1.71875,3.40625 -0.375,-0.1875 q 0.0781,-0.45313 0.0781,-0.625 0,-0.375 -1.01563,-0.90625 -2.15625,-1.15625 -5.25,-1.15625 -2.48437,0 -4.21875,0.92187 -1.73437,0.9375 -1.73437,2.60938 0,0.75 0.4375,1.35937 0.4375,0.59375 1.17187,0.84375 0.73438,0.25 1.59375,0.32813 0.85938,0.0781 3.6875,0.1875 2.35938,0.0781 3.5625,0.29687 1.21875,0.21875 2.07813,0.70313 0.92187,0.51562 1.45312,1.5 0.53125,0.96875 0.53125,2.125 0,2.42187 -1.98437,3.85937 -2.375,1.70313 -6.3125,1.70313 -1.9375,0 -4.07813,-0.59375 -2.125,-0.59375 -3.95312,-1.625 -0.25,-0.15625 -0.375,-0.15625 -0.23438,0 -0.70313,0.54687 l -0.35937,-0.23437 1.98437,-3.32813 0.375,0.21875 q -0.0469,0.1875 -0.0625,0.25 -0.0781,0.25 -0.0781,0.40625 0,0.4375 1.59375,1.28125 2.6875,1.42188 5.57812,1.42188 2.64063,0 4.39063,-0.90625 0.84375,-0.4375 1.34375,-1.17188 0.5,-0.75 0.5,-1.5625 0,-0.75 -0.42188,-1.34375 -0.42187,-0.59375 -1.10937,-0.84375 -0.64063,-0.21875 -1.4375,-0.3125 -0.78125,-0.0937 -2.96875,-0.17187 -2.57813,-0.10938 -3.6875,-0.25 -1.10938,-0.15625 -2.09375,-0.51563 -1.25,-0.45312 -2.01563,-1.46875 -0.76562,-1.04687 -0.76562,-2.46875 0,-2.51562 2.28125,-3.95312 2.32812,-1.46875 5.92187,-1.46875 3.28125,0 6.59375,1.46875 0.5,0.20312 0.57813,0.20312 0.25,0 0.59375,-0.57812 z"
           style="font-style:normal;font-variant:normal;font-weight:normal;font-stretch:normal;font-size:32px;font-family:'Copperplate Gothic light';-inkscape-font-specification:'Copperplate Gothic light, ';fill:#ffffff;fill-opacity:1"
           id="path1806"
           inkscape:connector-curvature="0" />
        <path
           d="m 163.29883,306.13188 v -13.96875 q 0,-0.65625 -0.20313,-0.92187 -0.20312,-0.26563 -0.79687,-0.42188 v -0.42187 h 4.23437 v 0.42187 q -0.59375,0.15625 -0.79687,0.42188 -0.20313,0.26562 -0.20313,0.92187 v 13.96875 q 0,0.64063 0.20313,0.92188 0.20312,0.26562 0.79687,0.42187 v 0.42188 h -4.23437 v -0.42188 q 0.59375,-0.15625 0.79687,-0.42187 0.20313,-0.28125 0.20313,-0.92188 z"
           style="font-style:normal;font-variant:normal;font-weight:normal;font-stretch:normal;font-size:32px;font-family:'Copperplate Gothic light';-inkscape-font-specification:'Copperplate Gothic light, ';fill:#ffffff;fill-opacity:1"
           id="path1808"
           inkscape:connector-curvature="0" />
        <path
           d="m 189.0957,292.03813 -2.14062,3.4375 -0.35938,-0.21875 q 0.15625,-0.54687 0.15625,-0.73437 0,-0.40625 -1.48437,-1.26563 -2.40625,-1.35937 -5.10938,-1.35937 -3.3125,0 -5.5,1.90625 -2.4375,2.10937 -2.4375,5.45312 0,3.17188 2.23438,5.1875 2.20312,2.01563 5.8125,2.01563 1.8125,0 3.45312,-0.53125 1.64063,-0.54688 2.78125,-1.5 v -3.21875 h -3.9375 q -0.65625,0 -0.9375,0.20312 -0.26562,0.20313 -0.40625,0.79688 h -0.42187 v -3.71875 h 0.42187 q 0.14063,0.60937 0.40625,0.8125 0.28125,0.20312 0.9375,0.20312 h 6.90625 v 0.42188 q -0.60937,0.14062 -0.8125,0.42187 -0.20312,0.26563 -0.20312,0.92188 v 1.8125 q 0,0.65625 0.20312,0.9375 0.20313,0.26562 0.8125,0.40625 v 0.35937 q -4.0625,3.48438 -9.45312,3.48438 -4.25,0 -6.96875,-2.28125 -1.45313,-1.23438 -2.28125,-2.96875 -0.89063,-1.84375 -0.89063,-3.82813 0,-2.9375 1.78125,-5.29687 1.59375,-2.09375 4.23438,-3.07813 1.96875,-0.73437 4.21875,-0.73437 1.9375,0 3.53125,0.46875 1.60937,0.46875 3.84375,1.67187 0.35937,0.1875 0.51562,0.1875 0.1875,0 0.73438,-0.625 z"
           style="font-style:normal;font-variant:normal;font-weight:normal;font-stretch:normal;font-size:32px;font-family:'Copperplate Gothic light';-inkscape-font-specification:'Copperplate Gothic light, ';fill:#ffffff;fill-opacity:1"
           id="path1810"
           inkscape:connector-curvature="0" />
        <path
           d="m 195.5957,293.13188 v 13 q 0,0.64063 0.1875,0.92188 0.20313,0.26562 0.8125,0.42187 v 0.42188 h -3.85937 v -0.42188 q 0.60937,-0.15625 0.79687,-0.42187 0.20313,-0.28125 0.20313,-0.92188 v -13.96875 q 0,-0.65625 -0.20313,-0.92187 -0.20312,-0.26563 -0.79687,-0.42188 v -0.42187 h 5.6875 v 0.42187 q -0.8125,0.26563 -0.8125,0.8125 0,0.46875 0.59375,1.125 l 10.32812,11.5625 v -12.15625 q 0,-0.65625 -0.20312,-0.92187 -0.20313,-0.26563 -0.79688,-0.42188 v -0.42187 h 3.85938 v 0.42187 q -0.59375,0.15625 -0.79688,0.42188 -0.20312,0.26562 -0.20312,0.92187 v 13.96875 q 0,0.64063 0.1875,0.92188 0.20312,0.26562 0.8125,0.42187 v 0.42188 h -4.57813 v -0.42188 q 0.8125,-0.20312 0.8125,-0.64062 0,-0.32813 -0.75,-1.17188 z"
           style="font-style:normal;font-variant:normal;font-weight:normal;font-stretch:normal;font-size:32px;font-family:'Copperplate Gothic light';-inkscape-font-specification:'Copperplate Gothic light, ';fill:#ffffff;fill-opacity:1"
           id="path1812"
           inkscape:connector-curvature="0" />
        <path
           d="m 231.81445,291.30376 -1.71875,3.40625 -0.375,-0.1875 q 0.0781,-0.45313 0.0781,-0.625 0,-0.375 -1.01563,-0.90625 -2.15625,-1.15625 -5.25,-1.15625 -2.48437,0 -4.21875,0.92187 -1.73437,0.9375 -1.73437,2.60938 0,0.75 0.4375,1.35937 0.4375,0.59375 1.17187,0.84375 0.73438,0.25 1.59375,0.32813 0.85938,0.0781 3.6875,0.1875 2.35938,0.0781 3.5625,0.29687 1.21875,0.21875 2.07813,0.70313 0.92187,0.51562 1.45312,1.5 0.53125,0.96875 0.53125,2.125 0,2.42187 -1.98437,3.85937 -2.375,1.70313 -6.3125,1.70313 -1.9375,0 -4.07813,-0.59375 -2.125,-0.59375 -3.95312,-1.625 -0.25,-0.15625 -0.375,-0.15625 -0.23438,0 -0.70313,0.54687 l -0.35937,-0.23437 1.98437,-3.32813 0.375,0.21875 q -0.0469,0.1875 -0.0625,0.25 -0.0781,0.25 -0.0781,0.40625 0,0.4375 1.59375,1.28125 2.6875,1.42188 5.57812,1.42188 2.64063,0 4.39063,-0.90625 0.84375,-0.4375 1.34375,-1.17188 0.5,-0.75 0.5,-1.5625 0,-0.75 -0.42188,-1.34375 -0.42187,-0.59375 -1.10937,-0.84375 -0.64063,-0.21875 -1.4375,-0.3125 -0.78125,-0.0937 -2.96875,-0.17187 -2.57813,-0.10938 -3.6875,-0.25 -1.10938,-0.15625 -2.09375,-0.51563 -1.25,-0.45312 -2.01563,-1.46875 -0.76562,-1.04687 -0.76562,-2.46875 0,-2.51562 2.28125,-3.95312 2.32812,-1.46875 5.92187,-1.46875 3.28125,0 6.59375,1.46875 0.5,0.20312 0.57813,0.20312 0.25,0 0.59375,-0.57812 z"
           style="font-style:normal;font-variant:normal;font-weight:normal;font-stretch:normal;font-size:32px;font-family:'Copperplate Gothic light';-inkscape-font-specification:'Copperplate Gothic light, ';fill:#ffffff;fill-opacity:1"
           id="path1814"
           inkscape:connector-curvature="0" />
      </g>
      <path
         inkscape:connector-curvature="0"
         id="path1060"
         d="M 33.953511,38.164713 H 90.838912"
         style="fill:#5b695f;fill-opacity:0.37433172;stroke:#ffffff;stroke-width:0.26458332px;stroke-linecap:round;stroke-linejoin:round;stroke-opacity:1" />
    </g>
  </g>
</svg>
