<?xml version="1.0" encoding="UTF-8" standalone="no"?>
<!-- Created with Inkscape (http://www.inkscape.org/) -->

<svg
   xmlns:dc="http://purl.org/dc/elements/1.1/"
   xmlns:cc="http://creativecommons.org/ns#"
   xmlns:rdf="http://www.w3.org/1999/02/22-rdf-syntax-ns#"
   xmlns:svg="http://www.w3.org/2000/svg"
   xmlns="http://www.w3.org/2000/svg"
   xmlns:sodipodi="http://sodipodi.sourceforge.net/DTD/sodipodi-0.dtd"
   xmlns:inkscape="http://www.inkscape.org/namespaces/inkscape"
   width="96.688728mm"
   height="22.59436mm"
   viewBox="0 0 96.688728 22.59436"
   version="1.1"
   id="svg8"
   inkscape:version="0.92.4 (5da689c313, 2019-01-14)"
   sodipodi:docname="Shadows.svg">
  <defs
     id="defs2">
    <clipPath
       clipPathUnits="userSpaceOnUse"
       id="clipPath4967">
      <g
         id="g4973"
         transform="matrix(1.0642453,0,0,0.93963298,-4.8662958e-6,4.170458e-6)"
         style="stroke-width:0.99999994">
        <rect
           transform="matrix(0.98710544,0.16007141,0,1,0,0)"
           y="131.88567"
           x="56.288307"
           height="26.458332"
           width="99.174644"
           id="rect4969"
           style="opacity:0.6;fill:#dbe3e2;fill-opacity:1;stroke:#d5f6ff;stroke-width:0;stroke-linecap:round;stroke-linejoin:round;stroke-miterlimit:4;stroke-dasharray:none;stroke-opacity:1" />
        <rect
           y="138.25"
           x="171.97917"
           height="23.8125"
           width="23.8125"
           id="rect4971"
           style="opacity:0.6;fill:#dbe3e2;fill-opacity:1;stroke:#d5f6ff;stroke-width:0;stroke-linecap:round;stroke-linejoin:round;stroke-miterlimit:4;stroke-dasharray:none;stroke-opacity:1" />
      </g>
    </clipPath>
    <clipPath
       clipPathUnits="userSpaceOnUse"
       id="clipPath4985">
      <rect
         style="opacity:0.6;fill:#d5f6ff;fill-opacity:1;stroke:#d5f6ff;stroke-width:0;stroke-linecap:round;stroke-linejoin:round;stroke-miterlimit:4;stroke-dasharray:none;stroke-opacity:1"
         id="rect4987"
         width="90.106102"
         height="19.888899"
         x="67.579575"
         y="159.73761" />
    </clipPath>
  </defs>
  <sodipodi:namedview
     id="base"
     pagecolor="#ffffff"
     bordercolor="#666666"
     borderopacity="1.0"
     inkscape:pageopacity="0.0"
     inkscape:pageshadow="2"
     inkscape:zoom="11.2"
     inkscape:cx="99.759161"
     inkscape:cy="20.224524"
     inkscape:document-units="px"
     inkscape:current-layer="layer1"
     showgrid="true"
     showborder="true"
     borderlayer="true"
     inkscape:showpageshadow="false"
     guidetolerance="30"
     objecttolerance="10000"
     inkscape:window-width="1920"
     inkscape:window-height="1001"
     inkscape:window-x="-9"
     inkscape:window-y="-9"
     inkscape:window-maximized="1"
     fit-margin-top="-0.4"
     fit-margin-left="0"
     fit-margin-right="0"
     fit-margin-bottom="0">
    <inkscape:grid
       type="xygrid"
       id="grid12"
       originx="-161.68058"
       originy="-263.52731" />
  </sodipodi:namedview>
  <metadata
     id="metadata5">
    <rdf:RDF>
      <cc:Work
         rdf:about="">
        <dc:format>image/svg+xml</dc:format>
        <dc:type
           rdf:resource="http://purl.org/dc/dcmitype/StillImage" />
        <dc:title></dc:title>
      </cc:Work>
    </rdf:RDF>
  </metadata>
  <g
     inkscape:label="Layer 1"
     inkscape:groupmode="layer"
     id="layer1"
     transform="translate(-91.701518,-142.64198)">
    <flowRoot
       xml:space="preserve"
       id="flowRoot4734"
       style="font-style:normal;font-weight:normal;font-size:40px;line-height:1.25;font-family:sans-serif;letter-spacing:0px;word-spacing:0px;fill:#000000;fill-opacity:1;stroke:none"
       transform="matrix(0.26458333,0,0,0.26458333,0,87)"><flowRegion
         id="flowRegion4736"><rect
           id="rect4738"
           width="430"
           height="75"
           x="290"
           y="223.70081" /></flowRegion><flowPara
         id="flowPara4740" /></flowRoot>    <flowRoot
       xml:space="preserve"
       id="flowRoot4990"
       style="font-style:normal;font-weight:normal;font-size:40px;line-height:1.25;font-family:sans-serif;letter-spacing:0px;word-spacing:0px;fill:#000000;fill-opacity:1;stroke:none"><flowRegion
         id="flowRegion4992"><rect
           id="rect4994"
           width="260"
           height="45"
           x="400"
           y="453.70081" /></flowRegion><flowPara
         id="flowPara4996" /></flowRoot>    <g
       id="g1550">
      <path
         style="opacity:1;fill:#d5f6ff;stroke:#000000;stroke-width:0;stroke-linecap:round;stroke-linejoin:round;stroke-miterlimit:4;stroke-dasharray:none"
         d="m 167.01637,149.80887 a 7.2760415,7.2760415 0 0 1 -7.27604,7.27604 7.2760415,7.2760415 0 0 1 -7.27605,-7.27604 7.2760415,7.2760415 0 0 1 7.27605,-7.27604 7.2760415,7.2760415 0 0 1 7.27604,7.27604 z"
         id="circle4728" />
      <path
         inkscape:connector-curvature="0"
         id="path4724"
         d="m 159.20578,142.24201 a 7.2760413,7.2760413 0 0 0 -7.27604,7.27604 7.2760413,7.2760413 0 0 0 6.82026,7.25279 7.2760413,7.2760413 0 0 1 -3.2768,-6.07146 7.2760413,7.2760413 0 0 1 7.27604,-7.27604 7.2760413,7.2760413 0 0 1 0.4563,0.0227 7.2760413,7.2760413 0 0 0 -3.99976,-1.20406 z"
         style="opacity:1;fill:#87aade;stroke:#000000;stroke-width:0;stroke-linecap:round;stroke-linejoin:round;stroke-miterlimit:4;stroke-dasharray:none" />
      <g
         aria-label="Web Designs"
         style="font-style:normal;font-weight:normal;font-size:10.58333302px;line-height:1.25;font-family:sans-serif;letter-spacing:0px;word-spacing:0px;fill:#000000;fill-opacity:1;stroke:none;stroke-width:0.26458332"
         id="text4748">
        <path
           d="m 114.37829,160.17618 -1.43041,4.12172 q -0.0827,0.24391 -0.0827,0.33899 0,0.13643 0.23564,0.20257 v 0.1323 h -1.36839 v -0.1323 q 0.23565,-0.0455 0.23565,-0.20257 0,-0.0868 -0.091,-0.33899 l -1.50896,-4.15479 q -0.15709,-0.42581 -0.24391,-0.5333 -0.0827,-0.11162 -0.28112,-0.14883 v -0.13229 h 1.32292 v 0.13229 q -0.24805,0.0289 -0.24805,0.21084 0,0.0661 0.11162,0.38447 l 1.4056,3.98529 1.3932,-3.98529 q 0.11989,-0.3514 0.11989,-0.40514 0,-0.14883 -0.23565,-0.19017 v -0.13229 h 1.43867 v 0.13229 q -0.23564,0.0579 -0.23564,0.21084 0,0.062 0.11162,0.38447 l 1.36839,3.98529 1.35599,-3.98529 q 0.0992,-0.29765 0.0992,-0.39274 0,-0.15709 -0.23151,-0.20257 v -0.13229 h 1.24437 v 0.13229 q -0.20257,0.0413 -0.29766,0.16123 -0.091,0.11576 -0.22737,0.5209 l -1.44281,4.15479 q -0.0827,0.23977 -0.0827,0.31832 0,0.16537 0.23564,0.22324 v 0.1323 h -1.34772 v -0.1323 q 0.23565,-0.0537 0.23565,-0.22737 0,-0.0538 -0.0827,-0.28112 z"
           style="font-style:normal;font-variant:normal;font-weight:normal;font-stretch:normal;font-size:8.46666622px;font-family:'Copperplate Gothic Light';-inkscape-font-specification:'Copperplate Gothic Light, Normal';font-variant-ligatures:normal;font-variant-caps:normal;font-variant-numeric:normal;font-feature-settings:normal;text-align:start;writing-mode:lr-tb;text-anchor:start;stroke-width:0.26458332"
           id="path1553" />
        <path
           d="m 120.0937,162.80548 v 1.71566 h 2.86081 q 0.17363,0 0.24391,-0.0538 0.0744,-0.0537 0.11162,-0.21497 h 0.11575 v 0.98392 h -0.11575 q -0.0372,-0.1571 -0.10749,-0.21084 -0.0703,-0.0537 -0.24391,-0.0537 h -3.7207 v -0.11163 q 0.16123,-0.0413 0.21084,-0.11162 0.0537,-0.0744 0.0537,-0.24391 v -3.6959 q 0,-0.17363 -0.0537,-0.24391 -0.0537,-0.0703 -0.21084,-0.11162 v -0.11162 h 3.69176 q 0.17363,0 0.24391,-0.0538 0.0703,-0.0537 0.11162,-0.21084 h 0.11163 v 0.98392 h -0.11163 q -0.0413,-0.16123 -0.11162,-0.21497 -0.0703,-0.0537 -0.24391,-0.0537 h -2.836 v 1.56269 h 1.80661 q 0.17363,0 0.24391,-0.0537 0.0703,-0.0538 0.11162,-0.21084 h 0.11162 v 0.98392 h -0.11162 q -0.0413,-0.16123 -0.11575,-0.21498 -0.0703,-0.0537 -0.23978,-0.0537 z"
           style="font-style:normal;font-variant:normal;font-weight:normal;font-stretch:normal;font-size:8.46666622px;font-family:'Copperplate Gothic Light';-inkscape-font-specification:'Copperplate Gothic Light, Normal';font-variant-ligatures:normal;font-variant-caps:normal;font-variant-numeric:normal;font-feature-settings:normal;text-align:start;writing-mode:lr-tb;text-anchor:start;stroke-width:0.26458332"
           id="path1555" />
        <path
           d="m 128.07874,162.54503 q 0.81442,0.33073 0.81442,1.13688 0,0.58705 -0.41341,0.93845 -0.23151,0.1943 -0.5333,0.27285 -0.30179,0.0785 -0.80615,0.0785 h -2.86494 v -0.11163 q 0.15709,-0.0413 0.21084,-0.11162 0.0537,-0.0744 0.0537,-0.24391 v -3.6959 q 0,-0.17363 -0.0537,-0.24391 -0.0537,-0.0703 -0.21084,-0.11162 v -0.11162 h 2.77812 q 0.43408,0 0.7028,0.0579 0.26872,0.0537 0.46715,0.18603 0.23978,0.15296 0.37621,0.42168 0.14056,0.26872 0.14056,0.57051 0,0.63665 -0.66146,0.96738 z m -2.94762,-0.21911 h 1.757 q 0.41754,0 0.61184,-0.0289 0.19844,-0.0331 0.35554,-0.12402 0.31833,-0.17777 0.31833,-0.57464 0,-0.44235 -0.36794,-0.65319 -0.16123,-0.0909 -0.3638,-0.11989 -0.19844,-0.0331 -0.60358,-0.0331 h -1.70739 z m 0,2.19522 h 1.84381 q 0.43822,0 0.64492,-0.0331 0.20671,-0.0372 0.37207,-0.14056 0.33487,-0.21084 0.33487,-0.65732 0,-0.50023 -0.38861,-0.73587 -0.16536,-0.10335 -0.38034,-0.14056 -0.21084,-0.0372 -0.63665,-0.0372 h -1.79007 z"
           style="font-style:normal;font-variant:normal;font-weight:normal;font-stretch:normal;font-size:8.46666622px;font-family:'Copperplate Gothic Light';-inkscape-font-specification:'Copperplate Gothic Light, Normal';font-variant-ligatures:normal;font-variant-caps:normal;font-variant-numeric:normal;font-feature-settings:normal;text-align:start;writing-mode:lr-tb;text-anchor:start;stroke-width:0.26458332"
           id="path1557" />
        <path
           d="m 132.2542,164.54181 v -4.78317 q 0,-0.12403 -0.0579,-0.19017 -0.0579,-0.0661 -0.20671,-0.10749 v -0.13229 h 2.97656 q 1.01286,0 1.5503,0.28112 0.67799,0.3514 1.03353,1.08314 0.31005,0.64079 0.31005,1.45521 0,0.96324 -0.41754,1.66191 -0.37621,0.62012 -0.95498,0.89297 -0.57464,0.26872 -1.52136,0.26872 h -2.97656 v -0.1323 q 0.14883,-0.0413 0.20671,-0.10748 0.0579,-0.0661 0.0579,-0.19017 z m 0.64905,-0.10749 h 2.03812 q 0.8971,0 1.33119,-0.27698 0.51263,-0.33073 0.7524,-1.01286 0.1571,-0.45476 0.1571,-0.99632 0,-0.98392 -0.50023,-1.62885 -0.27698,-0.35553 -0.67386,-0.50436 -0.39687,-0.14883 -1.0666,-0.14883 h -2.03812 z"
           style="font-style:normal;font-variant:normal;font-weight:normal;font-stretch:normal;font-size:8.46666622px;font-family:'Copperplate Gothic Light';-inkscape-font-specification:'Copperplate Gothic Light, Normal';font-variant-ligatures:normal;font-variant-caps:normal;font-variant-numeric:normal;font-feature-settings:normal;text-align:start;writing-mode:lr-tb;text-anchor:start;stroke-width:0.26458332"
           id="path1559" />
        <path
           d="m 139.69974,162.80548 v 1.71566 h 2.8608 q 0.17364,0 0.24392,-0.0538 0.0744,-0.0537 0.11162,-0.21497 h 0.11575 v 0.98392 h -0.11575 q -0.0372,-0.1571 -0.10749,-0.21084 -0.0703,-0.0537 -0.24391,-0.0537 h -3.7207 v -0.11163 q 0.16123,-0.0413 0.21083,-0.11162 0.0538,-0.0744 0.0538,-0.24391 v -3.6959 q 0,-0.17363 -0.0538,-0.24391 -0.0537,-0.0703 -0.21083,-0.11162 v -0.11162 h 3.69176 q 0.17363,0 0.24391,-0.0538 0.0703,-0.0537 0.11162,-0.21084 h 0.11162 v 0.98392 h -0.11162 q -0.0413,-0.16123 -0.11162,-0.21497 -0.0703,-0.0537 -0.24391,-0.0537 h -2.836 v 1.56269 h 1.8066 q 0.17364,0 0.24392,-0.0537 0.0703,-0.0538 0.11162,-0.21084 h 0.11162 v 0.98392 h -0.11162 q -0.0413,-0.16123 -0.11576,-0.21498 -0.0703,-0.0537 -0.23978,-0.0537 z"
           style="font-style:normal;font-variant:normal;font-weight:normal;font-stretch:normal;font-size:8.46666622px;font-family:'Copperplate Gothic Light';-inkscape-font-specification:'Copperplate Gothic Light, Normal';font-variant-ligatures:normal;font-variant-caps:normal;font-variant-numeric:normal;font-feature-settings:normal;text-align:start;writing-mode:lr-tb;text-anchor:start;stroke-width:0.26458332"
           id="path1561" />
        <path
           d="m 148.29042,160.58133 -0.45475,0.90123 -0.0992,-0.0496 q 0.0207,-0.11989 0.0207,-0.16536 0,-0.0992 -0.26871,-0.23978 -0.57051,-0.30592 -1.38907,-0.30592 -0.65732,0 -1.11621,0.24391 -0.45888,0.24805 -0.45888,0.6904 0,0.19843 0.11575,0.35966 0.11576,0.1571 0.31006,0.22325 0.1943,0.0661 0.42168,0.0868 0.22738,0.0207 0.97565,0.0496 0.62425,0.0207 0.94258,0.0786 0.32246,0.0579 0.54984,0.18604 0.24391,0.13642 0.38447,0.39687 0.14056,0.25632 0.14056,0.56224 0,0.64079 -0.52503,1.02113 -0.62839,0.45061 -1.67019,0.45061 -0.51263,0 -1.079,-0.15709 -0.56224,-0.1571 -1.04593,-0.42995 -0.0661,-0.0413 -0.0992,-0.0413 -0.062,0 -0.18604,0.14469 l -0.0951,-0.062 0.52503,-0.88056 0.0992,0.0579 q -0.0124,0.0496 -0.0165,0.0661 -0.0207,0.0661 -0.0207,0.10749 0,0.11575 0.42168,0.33899 0.71107,0.37621 1.47588,0.37621 0.69867,0 1.16169,-0.23978 0.22324,-0.11576 0.35553,-0.31006 0.13229,-0.19844 0.13229,-0.41341 0,-0.19844 -0.11162,-0.35554 -0.11162,-0.15709 -0.29352,-0.22324 -0.1695,-0.0579 -0.38034,-0.0827 -0.2067,-0.0248 -0.78548,-0.0455 -0.68213,-0.0289 -0.97565,-0.0662 -0.29352,-0.0413 -0.55397,-0.13643 -0.33073,-0.11989 -0.5333,-0.3886 -0.20257,-0.27699 -0.20257,-0.65319 0,-0.6656 0.60358,-1.04593 0.61598,-0.38861 1.56683,-0.38861 0.86816,0 1.74459,0.38861 0.13229,0.0537 0.15296,0.0537 0.0662,0 0.1571,-0.15296 z"
           style="font-style:normal;font-variant:normal;font-weight:normal;font-stretch:normal;font-size:8.46666622px;font-family:'Copperplate Gothic Light';-inkscape-font-specification:'Copperplate Gothic Light, Normal';font-variant-ligatures:normal;font-variant-caps:normal;font-variant-numeric:normal;font-feature-settings:normal;text-align:start;writing-mode:lr-tb;text-anchor:start;stroke-width:0.26458332"
           id="path1563" />
        <path
           d="m 149.39423,164.5046 v -3.6959 q 0,-0.17363 -0.0537,-0.24391 -0.0537,-0.0703 -0.21084,-0.11162 v -0.11162 H 150.25 v 0.11162 q -0.1571,0.0413 -0.21084,0.11162 -0.0538,0.0703 -0.0538,0.24391 v 3.6959 q 0,0.1695 0.0538,0.24391 0.0537,0.0703 0.21084,0.11162 v 0.11163 h -1.12035 v -0.11163 q 0.1571,-0.0413 0.21084,-0.11162 0.0537,-0.0744 0.0537,-0.24391 z"
           style="font-style:normal;font-variant:normal;font-weight:normal;font-stretch:normal;font-size:8.46666622px;font-family:'Copperplate Gothic Light';-inkscape-font-specification:'Copperplate Gothic Light, Normal';font-variant-ligatures:normal;font-variant-caps:normal;font-variant-numeric:normal;font-feature-settings:normal;text-align:start;writing-mode:lr-tb;text-anchor:start;stroke-width:0.26458332"
           id="path1565" />
        <path
           d="m 156.21966,160.77563 -0.56638,0.90951 -0.0951,-0.0579 q 0.0413,-0.1447 0.0413,-0.19431 0,-0.10748 -0.39274,-0.33486 -0.63665,-0.35967 -1.35186,-0.35967 -0.87643,0 -1.4552,0.50436 -0.64493,0.55811 -0.64493,1.44281 0,0.83923 0.59118,1.37253 0.58291,0.5333 1.53789,0.5333 0.47956,0 0.91364,-0.14056 0.43409,-0.1447 0.73588,-0.39688 v -0.85162 h -1.0418 q -0.17363,0 -0.24805,0.0537 -0.0703,0.0537 -0.10749,0.21084 h -0.11162 v -0.98392 h 0.11162 q 0.0372,0.16123 0.10749,0.21497 0.0744,0.0538 0.24805,0.0538 h 1.82728 v 0.11162 q -0.16123,0.0372 -0.21498,0.11162 -0.0537,0.0703 -0.0537,0.24391 v 0.47956 q 0,0.17363 0.0537,0.24805 0.0537,0.0703 0.21498,0.10748 v 0.0951 q -1.07487,0.9219 -2.50114,0.9219 -1.12448,0 -1.84382,-0.60358 -0.38447,-0.32659 -0.60358,-0.78548 -0.23564,-0.48782 -0.23564,-1.01286 0,-0.77721 0.47129,-1.40146 0.42168,-0.55397 1.12034,-0.81442 0.5209,-0.1943 1.11621,-0.1943 0.51263,0 0.93431,0.12402 0.42582,0.12402 1.01699,0.44235 0.0951,0.0496 0.13643,0.0496 0.0496,0 0.1943,-0.16537 z"
           style="font-style:normal;font-variant:normal;font-weight:normal;font-stretch:normal;font-size:8.46666622px;font-family:'Copperplate Gothic Light';-inkscape-font-specification:'Copperplate Gothic Light, Normal';font-variant-ligatures:normal;font-variant-caps:normal;font-variant-numeric:normal;font-feature-settings:normal;text-align:start;writing-mode:lr-tb;text-anchor:start;stroke-width:0.26458332"
           id="path1567" />
        <path
           d="m 157.93945,161.06502 v 3.43958 q 0,0.1695 0.0496,0.24391 0.0537,0.0703 0.21497,0.11162 v 0.11163 h -1.02112 v -0.11163 q 0.16123,-0.0413 0.21084,-0.11162 0.0537,-0.0744 0.0537,-0.24391 v -3.6959 q 0,-0.17363 -0.0537,-0.24391 -0.0538,-0.0703 -0.21084,-0.11162 v -0.11162 h 1.50481 v 0.11162 q -0.21497,0.0703 -0.21497,0.21497 0,0.12403 0.1571,0.29766 l 2.73265,3.05924 v -3.21634 q 0,-0.17363 -0.0538,-0.24391 -0.0537,-0.0703 -0.21084,-0.11162 v -0.11162 h 1.02113 v 0.11162 q -0.1571,0.0413 -0.21084,0.11162 -0.0537,0.0703 -0.0537,0.24391 v 3.6959 q 0,0.1695 0.0496,0.24391 0.0537,0.0703 0.21497,0.11162 v 0.11163 h -1.2113 v -0.11163 q 0.21498,-0.0537 0.21498,-0.16949 0,-0.0868 -0.19844,-0.31006 z"
           style="font-style:normal;font-variant:normal;font-weight:normal;font-stretch:normal;font-size:8.46666622px;font-family:'Copperplate Gothic Light';-inkscape-font-specification:'Copperplate Gothic Light, Normal';font-variant-ligatures:normal;font-variant-caps:normal;font-variant-numeric:normal;font-feature-settings:normal;text-align:start;writing-mode:lr-tb;text-anchor:start;stroke-width:0.26458332"
           id="path1569" />
        <path
           d="m 167.52233,160.58133 -0.45476,0.90123 -0.0992,-0.0496 q 0.0207,-0.11989 0.0207,-0.16536 0,-0.0992 -0.26872,-0.23978 -0.57051,-0.30592 -1.38906,-0.30592 -0.65733,0 -1.11621,0.24391 -0.45889,0.24805 -0.45889,0.6904 0,0.19843 0.11575,0.35966 0.11576,0.1571 0.31006,0.22325 0.19431,0.0661 0.42168,0.0868 0.22738,0.0207 0.97565,0.0496 0.62425,0.0207 0.94258,0.0786 0.32246,0.0579 0.54984,0.18604 0.24391,0.13642 0.38447,0.39687 0.14056,0.25632 0.14056,0.56224 0,0.64079 -0.52503,1.02113 -0.62839,0.45061 -1.67018,0.45061 -0.51263,0 -1.07901,-0.15709 -0.56224,-0.1571 -1.04593,-0.42995 -0.0661,-0.0413 -0.0992,-0.0413 -0.062,0 -0.18603,0.14469 l -0.0951,-0.062 0.52504,-0.88056 0.0992,0.0579 q -0.0124,0.0496 -0.0165,0.0661 -0.0207,0.0661 -0.0207,0.10749 0,0.11575 0.42168,0.33899 0.71106,0.37621 1.47588,0.37621 0.69866,0 1.16168,-0.23978 0.22324,-0.11576 0.35554,-0.31006 0.13229,-0.19844 0.13229,-0.41341 0,-0.19844 -0.11162,-0.35554 -0.11162,-0.15709 -0.29353,-0.22324 -0.16949,-0.0579 -0.38033,-0.0827 -0.20671,-0.0248 -0.78549,-0.0455 -0.68212,-0.0289 -0.97565,-0.0662 -0.29352,-0.0413 -0.55397,-0.13643 -0.33073,-0.11989 -0.5333,-0.3886 -0.20257,-0.27699 -0.20257,-0.65319 0,-0.6656 0.60358,-1.04593 0.61598,-0.38861 1.56683,-0.38861 0.86816,0 1.7446,0.38861 0.13229,0.0537 0.15296,0.0537 0.0661,0 0.15709,-0.15296 z"
           style="font-style:normal;font-variant:normal;font-weight:normal;font-stretch:normal;font-size:8.46666622px;font-family:'Copperplate Gothic Light';-inkscape-font-specification:'Copperplate Gothic Light, Normal';font-variant-ligatures:normal;font-variant-caps:normal;font-variant-numeric:normal;font-feature-settings:normal;text-align:start;writing-mode:lr-tb;text-anchor:start;stroke-width:0.26458332"
           id="path1571" />
      </g>
      <path
         sodipodi:nodetypes="ccccc"
         inkscape:connector-curvature="0"
         id="circle5019"
         d="m 165.11689,152.34569 c -0.0131,0.43633 -0.49453,1.1908 -1.08668,1.39568 -0.60016,0 -1.04688,-0.43305 -1.04688,-1.20386 0.82655,-0.75975 0.44672,-1.5875 1.04688,-1.5875 0.60016,0 1.08668,0.62487 1.08668,1.39568 z"
         style="opacity:0.6;fill:#77d2e9;fill-opacity:1;stroke:#77a9e9;stroke-width:0.13229166;stroke-linecap:round;stroke-linejoin:round;stroke-miterlimit:4;stroke-dasharray:none;stroke-opacity:1" />
      <path
         sodipodi:nodetypes="cscsc"
         inkscape:connector-curvature="0"
         id="ellipse5025"
         d="m 160.60208,153.59584 c 0,0.75 0.0592,0.97647 -0.69783,0.97647 -0.75699,0 -1.37065,-0.608 -1.37065,-1.358 0.20185,-1.21941 0.74708,-1.66826 1.37065,-1.358 0.67774,0.33721 0.69783,0.98952 0.69783,1.73953 z"
         style="opacity:0.6;fill:#77d2e9;fill-opacity:1;stroke:#77a9e9;stroke-width:0.13229166;stroke-linecap:round;stroke-linejoin:round;stroke-miterlimit:4;stroke-dasharray:none;stroke-opacity:1" />
      <path
         sodipodi:nodetypes="ccccc"
         inkscape:connector-curvature="0"
         id="ellipse5027"
         d="m 161.00764,147.05042 c -0.47153,0.0505 -0.49633,0.36691 -0.46862,0.50608 -0.25881,0 -0.48165,0.27485 -0.46862,-0.50608 0,-0.2795 0.20981,-0.50609 0.46862,-0.50609 0.25881,0 0.46862,0.22659 0.46862,0.50609 z"
         style="opacity:0.6;fill:#77d2e9;fill-opacity:1;stroke:#77a9e9;stroke-width:0.13229166;stroke-linecap:round;stroke-linejoin:round;stroke-miterlimit:4;stroke-dasharray:none;stroke-opacity:1" />
      <path
         sodipodi:nodetypes="sssss"
         inkscape:connector-curvature="0"
         id="path5043"
         d="m 165.36458,147.51042 c 0.46354,1.14618 -0.17443,1.05882 -1.51115,1.05882 -1.33673,0 -1.62872,-0.25003 -1.61047,-1.48104 0.0177,-1.19644 0.5371,-1.14724 1.38889,-2.09584 0.8777,-0.97744 1.3312,1.52522 1.73273,2.51806 z"
         style="opacity:0.6;fill:#77d2e9;fill-opacity:1;stroke:none;stroke-width:0.13229166;stroke-linecap:butt;stroke-linejoin:round;stroke-miterlimit:4;stroke-dasharray:none;stroke-opacity:1" />
      <g
         aria-label="SHAD    W"
         transform="matrix(0.26458333,0,0,0.26458333,19.377041,47.310475)"
         style="font-style:normal;font-variant:normal;font-weight:normal;font-stretch:normal;font-size:40px;line-height:1.25;font-family:'Copperplate Gothic Light';-inkscape-font-specification:'Copperplate Gothic Light, Normal';font-variant-ligatures:normal;font-variant-caps:normal;font-variant-numeric:normal;font-feature-settings:normal;text-align:start;letter-spacing:0px;word-spacing:0px;writing-mode:lr-tb;text-anchor:start;fill:#000000;fill-opacity:1;stroke:none"
         id="flowRoot1527">
        <path
           d="m 320.08432,365.73423 -4.9538,8.93762 -0.96997,-0.51963 q 0.58891,-1.55888 0.58891,-1.93994 0,-1.03926 -2.5635,-2.25173 -6.96303,-3.25634 -14.75746,-3.25634 -6.40876,0 -11.1547,2.39029 -2.28637,1.17783 -3.63741,3.04849 -1.31639,1.87067 -1.31639,3.94918 0,1.7321 1.03926,3.29098 1.03926,1.52425 2.73671,2.28637 1.87067,0.86605 4.39953,1.21247 2.5635,0.31178 8.31406,0.48499 7.96764,0.24249 11.39719,0.76212 3.42955,0.48499 5.64664,1.7321 5.88913,3.29098 5.88913,10.01151 0,6.40876 -5.33486,10.49651 -5.92377,4.57273 -16.31635,4.57273 -5.99305,0 -10.46186,-1.21247 -4.46881,-1.21246 -10.66972,-4.4688 -1.73209,-0.79677 -2.04387,-0.79677 -0.51963,0 -1.62817,1.24711 l -0.93533,-0.58891 5.19629,-8.69513 0.96997,0.55427 q -0.6582,1.38568 -0.6582,1.87067 0,1.10854 4.43417,3.42955 3.98382,2.07852 7.65587,3.01385 3.70668,0.90069 8.03692,0.90069 8.76441,0 13.30251,-3.84526 3.01384,-2.5635 3.01384,-6.09698 0,-4.64201 -5.16164,-6.40875 -1.66282,-0.58892 -3.4642,-0.72748 -1.76674,-0.17321 -10.11544,-0.48499 -5.95841,-0.24249 -9.35332,-0.90069 -3.36027,-0.6582 -5.99306,-2.1478 -2.45957,-1.38568 -3.91453,-3.8799 -1.42032,-2.49421 -1.42032,-5.43878 0,-5.02308 3.74133,-8.62584 2.77135,-2.63279 7.65586,-4.12239 4.88451,-1.52424 10.70436,-1.52424 4.74594,0 8.79905,0.93533 4.08775,0.93533 9.21475,3.2217 1.14319,0.48499 1.42032,0.48499 0.62356,0 1.69746,-1.38568 z"
           style="font-size:70.94667053px"
           id="path1574" />
        <path
           d="m 368.82551,388.04364 h -32.3902 v 17.97916 q 0,1.45496 0.4157,2.04387 0.45035,0.58891 1.80138,0.93533 v 1.10855 h -9.87295 V 409.002 q 1.35104,-0.34642 1.76674,-0.93533 0.45035,-0.58891 0.45035,-2.04387 v -39.11074 q 0,-1.45496 -0.45035,-2.04387 -0.45034,-0.62356 -1.76674,-0.93534 v -1.10854 h 9.87295 v 1.10854 q -1.31639,0.34642 -1.76674,0.93534 -0.45034,0.58891 -0.45034,2.04387 v 16.62813 h 32.3902 v -16.62813 q 0,-1.45496 -0.45034,-2.04387 -0.45035,-0.62356 -1.76674,-0.93534 v -1.10854 h 9.87295 v 1.10854 q -1.31639,0.34642 -1.76674,0.93534 -0.45035,0.58891 -0.45035,2.04387 v 39.11074 q 0,1.42032 0.45035,2.04387 0.45035,0.58891 1.76674,0.93533 v 1.10855 h -9.87295 V 409.002 q 1.31639,-0.34642 1.76674,-0.93533 0.45034,-0.58891 0.45034,-2.04387 z"
           style="font-size:70.94667053px"
           id="path1576" />
        <path
           d="m 420.40734,396.84269 h -25.32325 l -4.15703,8.97226 q -0.58892,1.28175 -0.58892,1.80138 0,1.03925 2.04388,1.38567 v 1.10855 H 381.85087 V 409.002 q 1.42032,-0.24249 2.1478,-1.03925 0.76212,-0.79677 1.97459,-3.4642 l 17.32097,-37.37864 q 0.62355,-1.35103 0.62355,-1.83602 0,-0.90069 -1.69745,-1.35104 v -1.10854 h 11.50112 v 1.10854 q -1.69746,0.55428 -1.69746,1.45497 0,0.38106 0.62356,1.73209 l 16.59348,36.02761 q 1.83602,3.98382 2.42494,4.67666 0.58891,0.69284 2.5635,1.17782 v 1.10855 H 423.00548 V 409.002 q 2.00924,-0.27713 2.00924,-1.52424 0,-0.55427 -0.76213,-2.1478 z m -2.04387,-4.50345 -10.63508,-23.34866 -10.60043,23.34866 z"
           style="font-size:70.94667053px"
           id="path1578" />
        <path
           d="m 441.43499,406.50779 v -40.08072 q 0,-1.03925 -0.48498,-1.59353 -0.48499,-0.55427 -1.7321,-0.90069 v -1.10854 h 24.94219 q 8.48727,0 12.99072,2.35565 5.68128,2.94457 8.66049,9.07619 2.59814,5.3695 2.59814,12.19396 0,8.07157 -3.49883,13.92605 -3.15242,5.19629 -8.00229,7.48266 -4.81523,2.25173 -12.74823,2.25173 H 439.21791 V 409.002 q 1.24711,-0.34642 1.7321,-0.90069 0.48498,-0.55427 0.48498,-1.59352 z m 5.43879,-0.90069 h 17.07847 q 7.5173,0 11.1547,-2.32101 4.2956,-2.77136 6.30483,-8.48728 1.31639,-3.81061 1.31639,-8.3487 0,-8.24478 -4.19167,-13.64892 -2.32101,-2.97921 -5.64663,-4.22632 -3.32563,-1.24711 -8.93762,-1.24711 h -17.07847 z"
           style="font-size:70.94667053px"
           id="path1580" />
        <path
           d="m 601.20358,369.92591 -11.98611,34.538 q -0.69284,2.04388 -0.69284,2.84064 0,1.14318 1.97459,1.69745 v 1.10855 H 579.03275 V 409.002 q 1.97459,-0.38106 1.97459,-1.69745 0,-0.72748 -0.76213,-2.84064 l -12.6443,-34.81514 q -1.31639,-3.56812 -2.04387,-4.46881 -0.69284,-0.93533 -2.35566,-1.24711 v -1.10854 h 11.08542 v 1.10854 q -2.07851,0.2425 -2.07851,1.76674 0,0.55427 0.93533,3.2217 l 11.77825,33.39482 11.67433,-33.39482 q 1.00462,-2.94456 1.00462,-3.39491 0,-1.24711 -1.97459,-1.59353 v -1.10854 h 12.05539 v 1.10854 q -1.97459,0.48499 -1.97459,1.76674 0,0.51963 0.93533,3.2217 l 11.46648,33.39482 11.36255,-33.39482 q 0.83141,-2.49422 0.83141,-3.29098 0,-1.31639 -1.93995,-1.69746 v -1.10854 h 10.42722 v 1.10854 q -1.69745,0.34642 -2.49422,1.35104 -0.76212,0.96997 -1.9053,4.36488 l -12.09003,34.81514 q -0.69284,2.00923 -0.69284,2.66743 0,1.38568 1.97459,1.87066 v 1.10855 H 612.289 V 409.002 q 1.97459,-0.45034 1.97459,-1.9053 0,-0.45035 -0.69284,-2.35565 z"
           style="fill:#4d85b5;fill-opacity:1"
           id="path1582" />
      </g>
    </g>
    <path
       style="fill:none;stroke:#000000;stroke-width:0.26458332;stroke-linecap:square;stroke-linejoin:miter;stroke-miterlimit:0;stroke-dasharray:0.02645833, 0.02645833;stroke-dashoffset:0;stroke-opacity:1"
       d="m 109.9376,158.35949 h 58.20833"
       id="path1587"
       inkscape:connector-curvature="0" />
  </g>
</svg>
